<?xml version="1.0" standalone="no"?>
<!DOCTYPE svg PUBLIC "-//W3C//DTD SVG 20010904//EN"
 "http://www.w3.org/TR/2001/REC-SVG-20010904/DTD/svg10.dtd">
<svg version="1.0" xmlns="http://www.w3.org/2000/svg"
 width="647.000000pt" height="647.000000pt" viewBox="0 0 647.000000 647.000000"
 preserveAspectRatio="xMidYMid meet">
<metadata>
Created by potrace 1.14, written by Peter Selinger 2001-2017
</metadata>
<g transform="translate(0.000000,647.000000) scale(0.100000,-0.100000)"
fill="#000000" stroke="none">
<path d="M2910 6389 c-558 -65 -1095 -267 -1555 -587 -321 -224 -645 -558
-852 -882 -275 -430 -427 -861 -483 -1370 -16 -137 -16 -498 -1 -625 78 -654
314 -1203 733 -1705 243 -290 534 -531 879 -728 179 -103 448 -220 621 -272
54 -16 106 -34 117 -40 11 -5 32 -10 48 -10 15 0 61 -9 102 -20 199 -53 422
-77 721 -79 458 -3 822 71 1285 259 72 29 141 60 155 69 14 9 50 30 80 46 135
70 371 224 484 315 176 141 389 352 522 518 104 130 241 331 317 467 169 301
305 706 364 1085 26 163 25 642 0 815 -90 603 -349 1167 -753 1635 -101 117
-283 297 -389 385 -471 389 -1089 650 -1705 720 -130 15 -576 17 -690 4z"/>
</g>
</svg>
